<?xml version="1.0" encoding="utf-8"?>
<!-- Generator: Adobe Illustrator 19.0.1, SVG Export Plug-In . SVG Version: 6.00 Build 0)  -->
<svg version="1.1" id="Layer_1" xmlns="http://www.w3.org/2000/svg" xmlns:xlink="http://www.w3.org/1999/xlink" x="0px" y="0px"
	 viewBox="0 0 756 756" style="enable-background:new 0 0 756 756;" xml:space="preserve">
<style type="text/css">
	.st0{fill:#268BD2;}
	.st1{fill:none;}
</style>
<g>
	<path class="st0" d="M337.3,344.4c-27.2,15.9-52.4,32-78.9,45.5c-13.7,7-29.5,10.5-44.7,13.8c-10,2.2-13.6-5.8-7.2-12.1
		c14.3-14.2,29.1-28.6,46.1-39c15.2-9.2,33.9-12.4,50.5-19.6c22.6-9.7,36.2-28.6,45.5-50.3c11.8-27.5,18.9-57.7,34.4-82.7
		c12.6-20.2,34-35.3,53.1-50.6c6.7-5.4,14.5-0.3,11.9,10.6c-1.3,5.5-3.2,10.9-4.9,16.2c-11.9,37-24.1,73.9-35.7,110.9
		c-9.8,31.3-18.9,62.7-28.1,94.2c-1.7,5.8-2.5,11.8-4.7,22.8c19.8-11.4,36.8-19.1,51.3-30.1c25.2-18.9,48.7-40.1,73.3-59.8
		c8.8-7.1,12.6-11.7,7.2-24.9c-5.6-13.8-3.4-30.9-4-46.5c-0.2-5,2.6-10.3,1.9-15.1c-5.7-39.8,16.1-63.5,46.8-82.6
		c17.8-11.1,35.1-23,53.4-33.2c4.2-2.4,15.2-1.4,16.7,1.5c9.2,17.2,20.4,34.7,9.5,55.6c-0.8,1.5-1.7,3-2,4.7
		c-5.4,28.1-18,52.5-35.5,75.3c-9.3,12.1,3.1,45.9,17.7,55c29,18.1,37.6,61.5,16.8,89c-13.6,17.9-28.6,34.7-45.2,54.7
		c8.1,2.2,15.3,6.6,20.9,5.1c15.5-4,31.8-8.3,45.2-16.6c21-13.1,39.9-29.7,59.8-44.6c3.6-2.7,7.7-5.2,11.9-6.3
		c3.7-1,7.9,0.2,11.9,0.4c-0.6,4.1,0.1,9.4-2.2,12.1c-8,9.4-16.3,18.8-25.7,26.7c-26.5,21.9-51.3,47.5-81.2,63.3
		c-28.5,15.1-61.2,27.4-96,14.9c-30.3-10.9-59.3,1.5-88.6,6c-20.6,3.1-46.2-2.4-43.9-10.4c4-14.3,12.3-28.8,22.6-39.5
		c13.2-13.6,29.9-23.9,45.5-35.1c13.5-9.7,27.4-11.4,42.9-2.4c11.2,6.5,23.5,11.3,35.9,15c4.6,1.4,12.3-0.9,15.9-4.3
		c16.7-15.7,19.6-47.3,5.2-65.3c-9.1-11.3-20.2-21.2-31.9-29.7c-4.1-3-14.7-2.3-18.9,1c-26.9,21.5-52.6,44.5-79.2,66.3
		c-8.5,7-19.1,11.5-27.7,18.5c-22.5,18.3-48.6,34.1-65.8,56.6c-47,61.5-101.1,114.9-158.9,166.2c-33.2,29.4-73.4,41.1-109.5,62.2
		c-8.6,5-27.2,1.7-36.3-4.7c-13.6-9.6-22.5-25.9-18.8-44.6c1.8-9.3,5.4-18.5,9.6-27c20.7-41.2,46-79.5,82.9-108
		c27.4-21.2,53.1-45.9,89.4-52.4c22.6-4.1,45-9.4,67.4-14.5c42.6-9.7,48.3-17.1,55.8-52.9C325.1,384.1,331.6,364.9,337.3,344.4z
		 M288.1,492.2c-40.8,11.8-77.3,23.8-114.5,32.3c-17.3,3.9-32.5,9.2-44,22.3c-16,18.2-32.5,36.2-45.8,56.2
		c-8.3,12.6-10,29.4,1.5,42.7c11,12.7,25.6,11.5,39,5.1c17.3-8.2,36.4-15.3,50.1-28c32.2-29.9,62.2-62.3,91.9-94.7
		C275.2,518.5,280.2,505.5,288.1,492.2z"/>
	<path class="st0" d="M248.9,695.4c5.4-21.9,23.3-35.3,38.6-49.1c18.6-16.8,39.5-32.2,61.7-43.6c22.9-11.6,48.4-18.1,73.2-25.7
		c5.4-1.7,12.3,0.6,18.3,2c8.3,2,16.3,4.8,24.4,7.4c45.9,14.5,82.4-1.6,115.7-33c12.7-12,29-20.2,44.8-30.9
		c9.5,17.4,1.3,25.6-8.5,32.8c-25,18.4-50.2,36.4-75.2,54.7c-8.2,6-15.8,12.9-23.8,19.2c-37.2,29-77.8,19.4-116.7,6.9
		c-38.3-12.3-68.2,1.7-97,22.7c-13.7,9.9-25.1,22.9-38,33.9c-3.8,3.3-9.3,4.7-14,7C251.3,698.2,250.1,696.8,248.9,695.4z"/>
	<path class="st0" d="M65.7,448.2c0.6-2,0.5-7.6,3.2-10.5c17.7-18.6,35.2-37.5,54.4-54.4c8.3-7.3,30,1.3,34.2,11.4
		c1.3,3.1,1.3,9.1-0.7,10.9c-21.9,19.8-43.3,40.5-67,58C77.1,472.9,65.5,465,65.7,448.2z"/>
	<path class="st0" d="M460.4,49.4c0.9,0.4,10.8,3.2,10.7,5.1c-0.9,9.7-1.5,21.9-7.6,28c-14.7,14.7-31.7,27.3-49,38.9
		c-6.1,4.1-16.4,5.5-23.5,3.6c-10.4-2.7-15.2-10.3-8.4-22.3C395.8,79.2,434.9,49.8,460.4,49.4z"/>
</g>
<rect id="_x3C_Slice_x3E_" x="-0.6" y="2.4" class="st1" width="131" height="153"/>
<rect id="_x3C_Slice_x3E__1_" x="-0.6" y="2.4" class="st1" width="5" height="243"/>
</svg>
