<?xml version="1.0" standalone="no"?>
<!DOCTYPE svg PUBLIC "-//W3C//DTD SVG 20010904//EN"
 "http://www.w3.org/TR/2001/REC-SVG-20010904/DTD/svg10.dtd">
<svg version="1.0" xmlns="http://www.w3.org/2000/svg"
 width="700.000000pt" height="700.000000pt" viewBox="0 0 700.000000 700.000000"
 preserveAspectRatio="xMidYMid meet">
<metadata>
Created by potrace 1.11, written by Peter Selinger 2001-2013
</metadata>
<g transform="translate(0.000000,700.000000) scale(0.100000,-0.100000)"
fill="#000000" stroke="none">
<path d="M4120 6512 c-205 -74 -443 -258 -551 -424 -52 -82 -64 -127 -45 -173
29 -68 158 -98 262 -62 68 23 327 215 463 343 73 68 98 127 103 235 l3 73 -35
18 c-50 24 -113 21 -200 -10z"/>
<path d="M5575 5949 c-31 -16 -100 -57 -153 -90 -53 -34 -106 -67 -117 -73
-53 -30 -310 -200 -329 -217 -8 -8 -36 -32 -63 -54 -92 -75 -172 -185 -213
-292 -30 -80 -33 -98 -36 -248 -2 -77 -5 -214 -8 -305 -4 -180 4 -264 34 -353
24 -68 25 -108 5 -147 -9 -17 -82 -85 -163 -152 -80 -68 -156 -131 -167 -140
-11 -9 -67 -56 -125 -103 -58 -48 -114 -94 -125 -103 -124 -103 -275 -209
-385 -269 -30 -17 -75 -42 -100 -55 -25 -14 -71 -40 -103 -58 l-58 -32 6 28
c20 114 33 165 92 369 101 351 218 728 383 1240 210 649 218 678 186 718 -26
34 -70 24 -138 -29 -147 -114 -248 -201 -319 -274 -146 -150 -203 -259 -374
-725 -105 -284 -161 -389 -274 -509 -100 -106 -182 -149 -472 -247 -134 -46
-200 -78 -299 -148 -108 -76 -329 -278 -364 -332 -29 -45 0 -89 57 -89 42 0
293 68 368 99 61 25 288 146 394 209 306 184 401 239 403 237 2 -2 -24 -94
-57 -206 -32 -112 -71 -256 -86 -319 -50 -213 -79 -285 -141 -346 -50 -50
-135 -94 -240 -125 -72 -20 -473 -114 -534 -124 -102 -17 -358 -79 -415 -100
-138 -52 -285 -147 -534 -345 -209 -166 -203 -161 -328 -287 -282 -285 -577
-773 -640 -1058 -17 -79 7 -200 55 -275 62 -98 135 -151 242 -179 130 -33 131
-32 545 174 449 224 574 302 765 481 25 23 55 51 66 61 325 280 925 902 1181
1223 7 8 57 72 113 142 107 135 207 232 360 349 285 218 342 260 415 305 75
46 230 166 309 239 6 6 133 113 283 237 177 148 284 230 306 236 58 16 106 6
166 -35 74 -51 250 -227 283 -283 59 -101 75 -237 44 -360 -39 -153 -128 -250
-230 -250 -47 0 -201 57 -327 120 -129 65 -183 79 -260 68 -75 -10 -116 -31
-259 -131 -248 -174 -323 -239 -412 -357 -61 -81 -143 -264 -132 -294 12 -30
84 -63 164 -74 61 -8 196 -8 245 0 22 4 54 9 70 12 17 3 98 19 180 36 287 59
384 59 585 -1 89 -26 124 -31 235 -34 197 -5 344 33 577 152 134 67 357 212
388 252 3 3 26 23 52 44 26 21 53 43 60 50 7 7 90 78 183 158 153 131 243 217
320 304 45 51 56 71 61 119 5 40 4 46 -12 47 -11 0 -34 2 -53 3 -22 2 -55 -8
-90 -26 -44 -22 -215 -148 -344 -254 -33 -27 -193 -141 -238 -170 -114 -72
-262 -131 -420 -167 -63 -14 -69 -13 -139 9 -39 12 -74 25 -77 28 -4 3 16 32
44 63 167 193 386 472 413 526 69 141 74 322 14 471 -43 106 -108 191 -194
254 -67 49 -120 113 -155 187 -38 77 -65 189 -60 240 2 17 3 37 4 47 1 9 40
74 87 144 133 198 183 306 249 534 19 63 43 142 55 175 18 49 21 73 16 130 -3
39 -13 90 -22 115 -28 79 -106 219 -126 226 -53 16 -98 11 -153 -17z m-2915
-3514 c0 -6 -64 -124 -111 -206 -44 -76 -56 -90 -293 -343 -61 -65 -119 -128
-129 -140 -33 -39 -332 -340 -441 -444 -123 -118 -192 -165 -361 -247 -160
-77 -255 -114 -309 -121 -153 -21 -296 115 -300 286 -2 76 23 141 92 240 46
66 183 242 212 271 8 9 38 42 65 75 209 247 241 265 625 364 319 82 323 83
644 180 307 93 306 93 306 85z"/>
<path d="M1171 3464 c-35 -15 -93 -67 -255 -230 -211 -212 -283 -291 -294
-324 -26 -74 -7 -165 45 -211 29 -25 41 -29 73 -25 21 3 51 11 67 20 49 26
243 185 398 326 33 30 102 93 154 140 51 47 97 96 102 108 13 34 -5 93 -38
124 -72 68 -185 100 -252 72z"/>
<path d="M5685 2094 c-55 -34 -104 -66 -110 -71 -5 -5 -32 -23 -60 -40 -27
-18 -61 -43 -75 -55 -125 -114 -280 -231 -370 -281 -265 -145 -496 -161 -825
-57 -139 44 -245 70 -288 70 -38 0 -307 -78 -482 -140 -215 -76 -403 -180
-616 -341 -42 -32 -83 -64 -91 -71 -7 -7 -47 -42 -88 -77 -119 -102 -274 -261
-308 -316 -31 -50 -62 -125 -62 -151 0 -22 31 -47 43 -35 6 6 17 11 24 11 26
0 103 57 204 152 137 128 152 140 234 203 226 172 437 254 648 253 101 -1 166
-12 302 -53 245 -73 356 -94 515 -95 215 -2 394 67 576 222 94 80 477 367 598
448 97 65 278 203 317 241 38 37 49 55 54 90 8 58 -8 138 -32 152 -4 2 -53
-24 -108 -59z"/>
</g>
</svg>
